<svg width="121" height="91" viewBox="0 0 121 91" fill="none" xmlns="http://www.w3.org/2000/svg">
<path d="M67.2628 23.296C67.2628 16.2587 69.5781 10.556 74.2085 6.188C78.8389 2.06266 84.6878 -3.17451e-06 91.7553 -2.55665e-06C100.285 -1.81096e-06 107.352 2.79067 112.958 8.372C118.319 13.9533 121 21.9613 121 32.396C121 43.5587 117.832 54.4787 111.495 65.156C104.915 76.076 95.7764 84.6907 84.0785 91L75.6707 78.26C82.007 73.892 87.1249 69.0387 91.0242 63.7C94.6798 58.3613 97.1168 52.1733 98.3354 45.136C96.142 46.1067 93.5831 46.592 90.6586 46.592C83.8348 46.592 78.2296 44.408 73.8429 40.04C69.4562 35.672 67.2628 30.0907 67.2628 23.296ZM5.91887e-06 23.296C6.53409e-06 16.2587 2.31522 10.556 6.94563 6.18799C11.576 2.06266 17.425 -9.05482e-06 24.4925 -8.43696e-06C33.0222 -7.69127e-06 40.0896 2.79067 45.6949 8.372C51.0564 13.9533 53.7372 21.9613 53.7372 32.396C53.7372 43.5587 50.569 54.4787 44.2326 65.156C37.6526 76.076 28.5136 84.6907 16.8157 91L8.40785 78.26C14.7442 73.892 19.862 69.0386 23.7613 63.7C27.4169 58.3613 29.854 52.1733 31.0725 45.136C28.8792 46.1067 26.3202 46.592 23.3958 46.592C16.572 46.592 10.9668 44.408 6.58007 40.04C2.19336 35.672 5.32486e-06 30.0906 5.91887e-06 23.296Z" fill="white" fill-opacity="0.2"/>
</svg>
