<svg width="121" height="91" viewBox="0 0 121 91" fill="none" xmlns="http://www.w3.org/2000/svg">
<path d="M53.7372 67.704C53.7372 74.7413 51.422 80.444 46.7915 84.812C42.1611 88.9373 36.3122 91 29.2447 91C20.715 91 13.6475 88.2093 8.0423 82.628C2.68077 77.0467 0 69.0387 0 58.604C0 47.4413 3.16818 36.5213 9.50453 25.844C16.0846 14.924 25.2236 6.30934 36.9215 0L45.3293 12.74C38.993 17.108 33.8751 21.9613 29.9758 27.3C26.3202 32.6387 23.8832 38.8267 22.6647 45.864C24.858 44.8933 27.4169 44.408 30.3414 44.408C37.1652 44.408 42.7704 46.592 47.1571 50.96C51.5438 55.328 53.7372 60.9093 53.7372 67.704ZM121 67.704C121 74.7413 118.685 80.444 114.054 84.812C109.424 88.9373 103.575 91 96.5076 91C87.9778 91 80.9104 88.2093 75.3051 82.628C69.9436 77.0467 67.2628 69.0387 67.2628 58.604C67.2628 47.4413 70.431 36.5213 76.7674 25.844C83.3474 14.924 92.4864 6.30934 104.184 0L112.592 12.74C106.256 17.108 101.138 21.9613 97.2387 27.3C93.5831 32.6387 91.146 38.8267 89.9275 45.864C92.1208 44.8933 94.6798 44.408 97.6042 44.408C104.428 44.408 110.033 46.592 114.42 50.96C118.807 55.328 121 60.9093 121 67.704Z" fill="white" fill-opacity="0.2"/>
</svg>
